<svg xmlns="http://www.w3.org/2000/svg" xmlns:xlink="http://www.w3.org/1999/xlink" width="500" zoomAndPan="magnify" viewBox="0 0 375 374.999991" height="500" preserveAspectRatio="xMidYMid meet" version="1.0"><path fill="#8c52ff" d="M 72.726562 120.300781 C 148.953125 -91.648438 387.21875 66.242188 269.105469 229.4375 C 270.738281 233.789062 271.554688 238.550781 271.554688 243.378906 C 271.554688 265.886719 253.398438 284.039062 230.890625 284.039062 C 208.382812 284.039062 190.226562 265.886719 190.226562 243.378906 C 190.226562 220.871094 208.382812 202.714844 230.890625 202.714844 C 233.203125 202.714844 235.445312 202.78125 237.621094 203.191406 C 304.464844 92.761719 179.824219 -49.558594 88.910156 112.617188 C 83.402344 114.859375 77.960938 117.378906 72.726562 120.300781 Z M 72.726562 120.300781 " fill-opacity="1" fill-rule="nonzero"/><path fill="#cb6ce6" d="M 309.972656 140.359375 C 455.421875 312.328125 199.476562 439.824219 117.199219 255.957031 C 112.640625 255.140625 108.222656 253.507812 104.003906 251.128906 C 84.558594 239.84375 77.894531 215.023438 89.046875 195.574219 C 100.332031 176.128906 125.289062 169.464844 144.601562 180.617188 C 164.046875 191.835938 170.710938 216.722656 159.558594 236.167969 C 158.472656 238.210938 157.113281 239.976562 155.753906 241.746094 C 217.96875 354.894531 403.605469 318.109375 308.542969 158.242188 C 309.359375 152.261719 309.835938 146.34375 309.972656 140.359375 Z M 309.972656 140.359375 " fill-opacity="1" fill-rule="nonzero"/><path fill="#5e17eb" d="M 173.90625 335.855469 C -47.628906 375.769531 -30.085938 90.449219 170.234375 111.121094 C 173.296875 107.585938 176.765625 104.59375 181.046875 102.144531 C 200.496094 90.859375 225.449219 97.523438 236.601562 116.96875 C 247.890625 136.417969 241.226562 161.371094 221.777344 172.523438 C 202.332031 183.8125 177.375 177.078125 166.222656 157.699219 C 165 155.660156 164.117188 153.6875 163.300781 151.582031 C 34.171875 148.859375 -26.753906 328.101562 159.152344 325.65625 C 163.910156 329.328125 168.738281 332.726562 173.90625 335.855469 Z M 173.90625 335.855469 " fill-opacity="1" fill-rule="nonzero"/></svg>